<svg width="14" height="10" viewBox="0 0 14 10" fill="none" xmlns="http://www.w3.org/2000/svg">
<path d="M14 2.26953V1.53125C14 0.685562 13.3144 0 12.4688 0H1.53125C0.685562 0 0 0.685562 0 1.53125V2.26953C0 2.34503 0.0612227 2.40625 0.136719 2.40625H13.8633C13.9388 2.40625 14 2.34503 14 2.26953Z" fill="#6E8BB7"/>
<path d="M0 3.41797V8.09375C0 8.93944 0.685562 9.625 1.53125 9.625H12.4688C13.3144 9.625 14 8.93944 14 8.09375V3.41797C14 3.34247 13.9388 3.28125 13.8633 3.28125H0.136719C0.0612227 3.28125 0 3.34247 0 3.41797ZM3.5 7C3.5 7.24161 3.30411 7.4375 3.0625 7.4375H2.625C2.38339 7.4375 2.1875 7.24161 2.1875 7V6.5625C2.1875 6.32089 2.38339 6.125 2.625 6.125H3.0625C3.30411 6.125 3.5 6.32089 3.5 6.5625V7Z" fill="#6E8BB7"/>
</svg>
