<svg width="18" height="18" viewBox="0 0 18 18" fill="none" xmlns="http://www.w3.org/2000/svg">
<path fill-rule="evenodd" clip-rule="evenodd" d="M8.99169 0.666748C4.39169 0.666748 0.666687 4.40008 0.666687 9.00008C0.666687 13.6001 4.39169 17.3334 8.99169 17.3334C13.6 17.3334 17.3334 13.6001 17.3334 9.00008C17.3334 4.40008 13.6 0.666748 8.99169 0.666748ZM9.00002 15.6667C5.31669 15.6667 2.33335 12.6834 2.33335 9.00008C2.33335 5.31675 5.31669 2.33341 9.00002 2.33341C12.6834 2.33341 15.6667 5.31675 15.6667 9.00008C15.6667 12.6834 12.6834 15.6667 9.00002 15.6667ZM8.16669 4.83341H9.41669V9.20841L13.1667 11.4334L12.5417 12.4584L8.16669 9.83341V4.83341Z" fill="#6E8BB7"/>
</svg>
