<svg width="9" height="15" viewBox="0 0 9 15" fill="none" xmlns="http://www.w3.org/2000/svg">
<path d="M5 2.66667C5.73333 2.66667 6.33333 2.06667 6.33333 1.33333C6.33333 0.6 5.73333 0 5 0C4.26667 0 3.66667 0.6 3.66667 1.33333C3.66667 2.06667 4.26667 2.66667 5 2.66667ZM2.53333 4.93333L0.666667 14.3333H2.06667L3.26667 9L4.66667 10.3333V14.3333H6V9.33333L4.6 8L5 6C5.86667 7 7.2 7.66667 8.66667 7.66667V6.33333C7.4 6.33333 6.33333 5.66667 5.8 4.73333L5.13333 3.66667C4.76 3.07333 4.01333 2.83333 3.36667 3.10667L0 4.53333V7.66667H1.33333V5.4L2.53333 4.93333Z" fill="#6E8BB7"/>
</svg>
